<svg width="591" height="542" viewBox="0 0 591 542" fill="none" xmlns="http://www.w3.org/2000/svg">
<path d="M83.2729 409.233L27.2839 411.114L35.9041 436.35C41.7282 452.765 53.4764 462.883 68.9687 465.736C74.5568 466.572 78.9888 466.3 83.0769 465.596C79.1888 466.86 72.5367 469.661 69.9967 474.577C66.3166 481.715 66.0846 487.076 66.4566 498.374L68.7447 517.625C68.7447 517.625 108.713 500.882 108.625 499.79C114.477 496.145 121.774 490.872 126.418 484.319C129.91 479.398 131.906 473.745 130.67 467.512C138.594 458.566 137.478 453.782 127.318 453.153C126.358 453.097 125.358 453.089 124.326 453.133C124.162 450.365 123.946 447.076 123.69 443.268C122.226 432.938 117.146 423.54 109.565 417.159C103.193 411.794 95.4891 408.921 87.697 408.921C86.221 408.921 84.7449 409.025 83.2729 409.233Z" fill="url(#paint0_linear_98_2264)"/>
<path d="M111.741 459.175C93.1131 464.44 90.289 471.157 88.273 479.126C86.249 487.092 89.245 507.104 90.697 513.029C90.697 513.029 114.853 507.059 133.074 494.433C144.094 484.615 141.946 480.214 141.474 465.612C140.406 451.757 138.974 441.831 137.182 435.842C138.886 444.208 130.402 451.985 111.741 459.175Z" fill="url(#paint1_linear_98_2264)"/>
<path d="M58.9286 428.593C63.8967 450.017 73.6448 459.203 91.5411 461.127C95.8932 462.752 127.762 461.083 140.594 479.859C141.71 479.399 141.014 466.624 138.518 441.54C135.55 428.729 134.178 420.46 127.014 413.01C119.85 405.557 104.829 401.252 95.6132 399.812L53.6205 394.435L58.9286 428.593Z" fill="url(#paint2_linear_98_2264)"/>
<path d="M110.593 459.527C109.029 459.955 107.809 460.395 107.429 460.519C105.393 461.199 103.369 462.023 102.525 462.447C123.03 466.092 136.11 472.013 141.766 480.215C142.19 479.314 141.738 471.933 141.634 468.348C140.574 452.898 139.026 442.015 137.126 435.67C137.878 444.132 130.85 452.273 110.593 459.527Z" fill="#FFB511"/>
<path fill-rule="evenodd" clip-rule="evenodd" d="M69.3912 151.132C81.922 151.132 92.0803 161.292 92.0803 173.825V173.883C92.0803 186.416 81.922 196.576 69.3912 196.576H35.9315C34.6816 196.576 33.4553 196.475 32.2604 196.28L25.7779 202.543C25.6016 202.713 25.3661 202.808 25.1211 202.808C24.599 202.808 24.1757 202.385 24.1757 201.863L24.1753 193.296C17.6212 189.317 13.2424 182.111 13.2424 173.883V173.825C13.2424 161.292 23.4007 151.132 35.9315 151.132H69.3912Z" fill="#253368"/>
<path d="M63.8877 96.7635H111.663C129.564 96.7635 144.076 111.278 144.076 129.182C144.076 147.086 129.564 161.601 111.663 161.601H63.8877C45.9865 161.601 31.4747 147.086 31.4747 129.182C31.4747 111.278 45.9865 96.7635 63.8877 96.7635Z" fill="#B50097"/>
<path fill-rule="evenodd" clip-rule="evenodd" d="M128.46 152.171V169.142C128.46 169.888 127.856 170.493 127.11 170.493C126.76 170.493 126.424 170.357 126.172 170.114L113.703 158.081L128.46 152.171Z" fill="#B50097"/>
<path d="M109.468 133.234C106.578 133.234 104.235 130.891 104.235 128C104.235 125.109 106.578 122.766 109.468 122.766C112.359 122.766 114.702 125.109 114.702 128C114.702 130.891 112.359 133.234 109.468 133.234Z" fill="white"/>
<path d="M88.0286 133.234C85.1383 133.234 82.7953 130.891 82.7953 128C82.7953 125.109 85.1383 122.766 88.0286 122.766C90.9189 122.766 93.262 125.109 93.262 128C93.262 130.891 90.9189 133.234 88.0286 133.234Z" fill="white"/>
<path d="M66.0823 133.234C63.192 133.234 60.849 130.891 60.849 128C60.849 125.109 63.192 122.766 66.0823 122.766C68.9726 122.766 71.3157 125.109 71.3157 128C71.3157 130.891 68.9726 133.234 66.0823 133.234Z" fill="white"/>
<path fill-rule="evenodd" clip-rule="evenodd" d="M296.602 247.441C292.199 247.441 288.629 244.252 288.629 240.318V70.7351H551.871V240.318C551.871 244.252 548.301 247.441 543.898 247.441H296.602Z" fill="#E4EBF7"/>
<path d="M531.702 86.1035H379.273C377.518 86.1035 376.095 87.5262 376.095 89.2812V231.507C376.095 233.262 377.518 234.685 379.273 234.685H531.702C533.457 234.685 534.88 233.262 534.88 231.507V89.2812C534.88 87.5262 533.457 86.1035 531.702 86.1035Z" fill="white"/>
<path d="M360.22 84.9214H308.354C306.599 84.9214 305.177 86.3441 305.177 88.0991V230.325C305.177 232.08 306.599 233.503 308.354 233.503H360.22C361.975 233.503 363.397 232.08 363.397 230.325V88.0991C363.397 86.3441 361.975 84.9214 360.22 84.9214Z" fill="white"/>
<path d="M349.089 144.03H319.983C318.986 144.03 318.178 144.839 318.178 145.835V150.3C318.178 151.297 318.986 152.105 319.983 152.105H349.089C350.086 152.105 350.894 151.297 350.894 150.3V145.835C350.894 144.839 350.086 144.03 349.089 144.03Z" fill="#9B51E0"/>
<path d="M349.116 159.399H319.956C318.974 159.399 318.178 160.195 318.178 161.176V165.451C318.178 166.433 318.974 167.229 319.956 167.229H349.116C350.098 167.229 350.894 166.433 350.894 165.451V161.176C350.894 160.195 350.098 159.399 349.116 159.399Z" fill="#ADC6FF"/>
<path d="M349.116 174.767H319.956C318.974 174.767 318.178 175.563 318.178 176.545V180.819C318.178 181.801 318.974 182.597 319.956 182.597H349.116C350.098 182.597 350.894 181.801 350.894 180.819V176.545C350.894 175.563 350.098 174.767 349.116 174.767Z" fill="#FF7946"/>
<path d="M349.116 190.135H319.956C318.974 190.135 318.178 190.931 318.178 191.913V196.188C318.178 197.169 318.974 197.965 319.956 197.965H349.116C350.098 197.965 350.894 197.169 350.894 196.188V191.913C350.894 190.931 350.098 190.135 349.116 190.135Z" fill="#ADC6FF"/>
<path d="M484.614 194.864H393.579C392.41 194.864 391.461 195.813 391.461 196.983V196.991C391.461 198.161 392.41 199.109 393.579 199.109H484.614C485.784 199.109 486.732 198.161 486.732 196.991V196.983C486.732 195.813 485.784 194.864 484.614 194.864Z" fill="#9B51E0"/>
<path d="M484.614 217.326H393.579C392.41 217.326 391.461 218.274 391.461 219.444V219.452C391.461 220.622 392.41 221.571 393.579 221.571H484.614C485.784 221.571 486.732 220.622 486.732 219.452V219.444C486.732 218.274 485.784 217.326 484.614 217.326Z" fill="#9B51E0"/>
<path d="M516.371 205.504H393.579C392.41 205.504 391.461 206.452 391.461 207.622V207.631C391.461 208.801 392.41 209.749 393.579 209.749H516.371C517.54 209.749 518.489 208.801 518.489 207.631V207.622C518.489 206.452 517.54 205.504 516.371 205.504Z" fill="#9B51E0"/>
<path d="M514.879 100.29H395.698C393.358 100.29 391.461 102.187 391.461 104.527V181.17C391.461 183.51 393.358 185.407 395.698 185.407H514.879C517.219 185.407 519.115 183.51 519.115 181.17V104.527C519.115 102.187 517.219 100.29 514.879 100.29Z" fill="#9B51E0"/>
<path fill-rule="evenodd" clip-rule="evenodd" d="M552.122 73.594H288.893V55.4373C288.893 51.4987 292.099 48.3054 296.053 48.3054H544.962C548.917 48.3054 552.122 51.4987 552.122 55.4373V73.594Z" fill="#253368"/>
<path fill-rule="evenodd" clip-rule="evenodd" d="M307.351 60.1786C307.351 62.6504 305.352 64.6545 302.886 64.6545C300.42 64.6545 298.421 62.6504 298.421 60.1786C298.421 57.7068 300.42 55.7028 302.886 55.7028C305.352 55.7028 307.351 57.7068 307.351 60.1786Z" fill="#FF7946"/>
<path fill-rule="evenodd" clip-rule="evenodd" d="M324.023 60.1786C324.023 62.6504 322.024 64.6545 319.558 64.6545C317.092 64.6545 315.093 62.6504 315.093 60.1786C315.093 57.7068 317.092 55.7028 319.558 55.7028C322.024 55.7028 324.023 57.7068 324.023 60.1786Z" fill="#FAAD14"/>
<path fill-rule="evenodd" clip-rule="evenodd" d="M340.696 60.1786C340.696 62.6504 338.696 64.6545 336.23 64.6545C333.764 64.6545 331.765 62.6504 331.765 60.1786C331.765 57.7068 333.764 55.7028 336.23 55.7028C338.696 55.7028 340.696 57.7068 340.696 60.1786Z" fill="#7CB305"/>
<path d="M335.311 127.543C343.382 127.543 349.925 120.925 349.925 112.761C349.925 104.597 343.382 97.9786 335.311 97.9786C327.24 97.9786 320.697 104.597 320.697 112.761C320.697 120.925 327.24 127.543 335.311 127.543Z" fill="#FAAD14"/>
<path d="M335.311 127.543C339.523 127.546 343.52 125.664 346.23 122.402C344.095 118.302 339.89 115.735 335.308 115.735C330.727 115.735 326.522 118.302 324.387 122.402C327.098 125.664 331.097 127.546 335.311 127.543Z" fill="#253368"/>
<path d="M335.388 116.323C338.424 116.323 340.885 113.833 340.885 110.763C340.885 107.693 338.424 105.203 335.388 105.203C332.353 105.203 329.892 107.693 329.892 110.763C329.892 113.833 332.353 116.323 335.388 116.323Z" fill="#253368"/>
<path d="M519.521 129.844C519.847 129.844 520.112 130.109 520.112 130.435C520.112 130.747 519.871 131.002 519.565 131.025L519.521 131.026H392.643C392.317 131.026 392.052 130.762 392.052 130.435C392.052 130.124 392.293 129.868 392.599 129.846L392.643 129.844H519.521Z" fill="white"/>
<path d="M421.011 99.2068C421.322 99.2068 421.578 99.4479 421.6 99.7538L421.602 99.7979V185.407C421.602 185.733 421.337 185.998 421.011 185.998C420.699 185.998 420.444 185.757 420.421 185.451L420.42 185.407V99.7979C420.42 99.4714 420.684 99.2068 421.011 99.2068Z" fill="white"/>
<path d="M455.288 99.2068C455.6 99.2068 455.855 99.4479 455.878 99.7538L455.879 99.7979V185.407C455.879 185.733 455.615 185.998 455.288 185.998C454.977 185.998 454.721 185.757 454.699 185.451L454.697 185.407V99.7979C454.697 99.4714 454.962 99.2068 455.288 99.2068Z" fill="white"/>
<path d="M488.384 99.2068C488.695 99.2068 488.951 99.4479 488.973 99.7538L488.975 99.7979V185.407C488.975 185.733 488.71 185.998 488.384 185.998C488.072 185.998 487.817 185.757 487.794 185.451L487.793 185.407V99.7979C487.793 99.4714 488.057 99.2068 488.384 99.2068Z" fill="white"/>
<path d="M519.521 158.217C519.847 158.217 520.112 158.481 520.112 158.808C520.112 159.119 519.871 159.375 519.565 159.397L519.521 159.399H392.643C392.317 159.399 392.052 159.134 392.052 158.808C392.052 158.496 392.293 158.241 392.599 158.218L392.643 158.217H519.521Z" fill="white"/>
<g clip-path="url(#clip0_98_2264)">
<path fill-rule="evenodd" clip-rule="evenodd" d="M301.964 192.101C301.964 192.101 324.457 190.795 328.302 214.786C349.151 224.471 341.256 247.452 341.256 247.452C341.256 247.452 350.476 266.833 328.184 274.432C324.837 293.186 303.655 287.897 303.655 287.897C303.655 287.897 297.243 302.06 281.438 294.637C262.646 306.816 229.693 301.205 219.354 283.438C194.481 298.87 155.657 274.068 162.133 258.582C134.984 254.575 124.249 224.484 142.362 201.271C131.755 180.76 146.748 170.489 146.748 170.489C146.748 170.489 146.733 125.476 178.179 122.128C196.145 99.4417 228.843 121.739 228.843 121.739C228.843 121.739 252.014 118.976 258.471 139.444C283.571 145.552 281.173 159.433 282.117 171.346C304.77 174.598 301.964 192.101 301.964 192.101Z" fill="#253368"/>
<path fill-rule="evenodd" clip-rule="evenodd" d="M233.259 164.196C215.152 165.79 210.895 151.822 210.895 151.822C210.895 151.822 205.176 132.176 202.283 143.685C200.747 149.8 191.869 140.744 186.891 146.976C183.541 151.17 190.461 157.545 179.799 168.578C173.623 174.97 195.18 182.356 180.494 193.853C180.494 193.853 188.824 210.153 171.791 213.766L168.468 231.747C166.535 242.213 174.051 252.064 184.654 252.962C194.762 253.817 203.583 246.154 204.148 236.022L205.381 213.852C231.154 216.076 235.467 180.756 233.259 164.196Z" fill="#FFC999"/>
<path fill-rule="evenodd" clip-rule="evenodd" d="M214.248 187.404C206.791 187.483 200.264 183.13 200.264 183.13C200.264 183.13 198.321 192.844 204.538 194.01C210.575 195.142 214.248 187.404 214.248 187.404Z" fill="white"/>
<path d="M199.196 182.916L199.124 183.332C199.097 183.505 199.068 183.711 199.039 183.946C198.845 185.535 198.816 187.204 199.059 188.791C199.573 192.152 201.235 194.498 204.337 195.08C207.58 195.688 210.425 194.217 212.809 191.479C213.493 190.693 214.089 189.856 214.597 189.019C214.904 188.513 215.117 188.113 215.232 187.871C215.577 187.144 215.041 186.307 214.237 186.316C211.117 186.348 207.912 185.576 204.815 184.265C203.749 183.814 202.774 183.33 201.912 182.848L201.513 182.62C201.212 182.445 200.995 182.309 200.868 182.224C200.223 181.794 199.348 182.156 199.196 182.916ZM201.1 185.277L201.13 184.9L200.849 184.748C201.778 185.268 202.824 185.786 203.967 186.27L204.597 186.529C206.893 187.447 209.247 188.087 211.606 188.354L212.393 188.428L212.162 188.771C211.857 189.208 211.525 189.638 211.167 190.048C209.238 192.264 207.082 193.379 204.738 192.939C202.701 192.558 201.6 191.003 201.211 188.462C201.055 187.44 201.03 186.351 201.1 185.277Z" fill="#F5222D"/>
<path d="M208.849 182.181C209.209 182.173 209.804 182.095 210.639 181.889C211.919 181.573 213.419 181.029 215.144 180.209L215.449 180.061L215.193 179.582C214.02 177.326 213.221 175.125 212.74 173.019L212.617 172.447C212.288 170.82 212.183 169.453 212.214 168.404L212.241 167.917C212.243 167.893 212.245 167.874 212.246 167.858C212.297 167.41 212.701 167.087 213.149 167.138C213.552 167.183 213.854 167.515 213.873 167.907L213.858 168.194C213.802 169.141 213.884 170.476 214.218 172.122C214.722 174.611 215.706 177.262 217.286 180.002C217.519 180.406 217.366 180.923 216.951 181.137C214.665 182.312 212.693 183.064 211.03 183.475C210.068 183.712 209.342 183.807 208.848 183.814L208.628 183.811C208.178 183.783 207.836 183.395 207.864 182.945C207.889 182.54 208.205 182.222 208.596 182.183L208.727 182.179L208.849 182.181Z" fill="#DD936F"/>
<path d="M196.431 161.293C199.762 161.582 201.885 165.739 201.48 170.442C201.43 171.019 200.921 171.447 200.344 171.397C199.767 171.347 199.339 170.839 199.389 170.261C199.708 166.567 198.167 163.55 196.251 163.384C194.338 163.221 192.305 165.928 191.984 169.622C191.934 170.2 191.425 170.627 190.848 170.577C190.271 170.527 189.843 170.018 189.894 169.441C190.291 164.857 192.964 161.196 196.183 161.279L196.431 161.293Z" fill="#253368"/>
<path d="M224.621 166.304C227.95 166.591 230.074 170.748 229.668 175.451C229.618 176.028 229.11 176.456 228.532 176.406C227.955 176.356 227.527 175.848 227.577 175.27C227.896 171.577 226.355 168.56 224.441 168.396C222.526 168.231 220.493 170.937 220.175 174.631C220.125 175.209 219.616 175.636 219.039 175.587C218.462 175.537 218.034 175.028 218.084 174.451C218.479 169.866 221.153 166.205 224.372 166.29L224.621 166.304Z" fill="#253368"/>
<path d="M188.495 151.451C193.466 148.911 198.205 148.819 202.293 150.196C203.267 150.524 203.973 150.859 204.375 151.099C204.898 151.411 205.07 152.089 204.758 152.613C204.445 153.137 203.768 153.308 203.244 152.996L203.141 152.939C203.07 152.902 202.973 152.852 202.849 152.794C202.49 152.623 202.068 152.451 201.588 152.289C198.029 151.09 193.898 151.171 189.499 153.418C188.956 153.695 188.291 153.48 188.014 152.937C187.736 152.394 187.952 151.728 188.495 151.451Z" fill="#253368"/>
<path d="M189.254 208.04C189.503 207.664 190.01 207.561 190.386 207.81C195.151 210.963 200.218 212.778 205.416 213.298C205.865 213.343 206.192 213.743 206.148 214.192C206.103 214.641 205.703 214.968 205.254 214.923C199.79 214.377 194.47 212.471 189.485 209.172C189.109 208.923 189.005 208.416 189.254 208.04Z" fill="#DD936F"/>
<path fill-rule="evenodd" clip-rule="evenodd" d="M295.307 385.991L296.656 385.25C306.739 379.706 310.421 367.04 304.881 356.958L253.556 263.555C248.014 253.47 235.35 249.79 225.269 255.331L223.92 256.072C213.839 261.615 210.157 274.279 215.697 284.364L267.021 377.767C272.564 387.85 285.225 391.532 295.307 385.991Z" fill="#FFC999"/>
<path fill-rule="evenodd" clip-rule="evenodd" d="M237.4 323.859L215.336 283.706C210.019 274.027 214.183 261.425 224.595 255.701C235.007 249.98 247.876 253.218 253.195 262.897L275.048 302.669L237.4 323.859Z" fill="#FF7A46"/>
<path d="M223.743 255.446C224.05 255.277 224.436 255.389 224.604 255.696C224.773 256.003 224.661 256.389 224.354 256.558C214.382 262.041 210.314 274.001 215.136 283.309L215.345 283.701L237.1 323.291L274.19 302.416C274.462 302.264 274.797 302.332 274.989 302.564L275.054 302.658C275.207 302.93 275.138 303.265 274.907 303.457L274.812 303.522L237.164 324.712C236.891 324.866 236.553 324.796 236.362 324.561L236.297 324.465L214.233 284.312C208.741 274.317 213.034 261.334 223.743 255.446Z" fill="#C44343"/>
<path fill-rule="evenodd" clip-rule="evenodd" d="M257.552 695.382C266.025 698.64 275.585 694.556 279.209 686.129L356.749 505.904C362.334 492.92 356.117 477.935 343.062 472.915C330.009 467.898 315.356 474.857 310.807 488.239L247.67 674.002C244.719 682.687 249.079 692.124 257.552 695.382Z" fill="#FFC999"/>
<path fill-rule="evenodd" clip-rule="evenodd" d="M143.764 467.28C149.218 450.812 164.318 441.122 177.203 445.823L315.74 496.375C326.411 500.269 331.324 514.262 326.809 527.899C322.297 541.538 310.001 549.832 299.117 546.586L157.792 504.457C144.648 500.538 138.313 483.749 143.764 467.28Z" fill="#FFC999"/>
<path fill-rule="evenodd" clip-rule="evenodd" d="M459.937 697.782C468.383 694.458 472.67 684.986 469.648 676.325L405.016 491.076C400.362 477.731 385.653 470.888 372.639 476.013C359.626 481.136 353.531 496.172 359.22 509.11L438.208 688.705C441.901 697.101 451.493 701.109 459.937 697.782Z" fill="#FFC999"/>
<path fill-rule="evenodd" clip-rule="evenodd" d="M218.436 482.314C220.313 465.067 233.045 452.424 246.63 454.318L392.688 474.671C403.939 476.238 411.677 488.89 410.125 503.171C408.571 517.453 398.291 528.143 386.968 527.255L239.951 515.719C226.275 514.644 216.561 499.561 218.436 482.314Z" fill="#FFC999"/>
<path fill-rule="evenodd" clip-rule="evenodd" d="M242.028 280.048C245.915 289.746 253.173 306.463 253.647 317.297C254.415 334.859 242.397 347.31 242.397 347.31C242.397 347.31 242.608 350.982 244.551 387.506C191.971 394.095 154.033 389.061 154.033 389.061L155.471 370.681L148.397 341.884C148.397 341.884 147.907 330.787 138.496 306.689C131.95 289.934 134.636 270.297 136.166 259.479C136.818 254.844 132.817 248.868 137.381 247.823C153.317 244.174 161.396 246.161 161.396 246.161L163.387 235.863C163.729 234.099 165.314 232.853 167.109 232.942L205.429 234.822C207.075 234.902 208.457 236.089 208.788 237.703L211.03 246.724L236.836 251.75C240.524 252.665 243.183 255.879 243.384 259.674L242.028 280.048Z" fill="#FF7A46"/>
<path d="M172.137 246.573L206.643 248.266C207.006 248.284 207.286 248.592 207.268 248.955C207.252 249.278 207.007 249.535 206.697 249.576L206.579 249.581L172.072 247.887C171.709 247.87 171.429 247.561 171.447 247.198C171.463 246.875 171.709 246.618 172.018 246.577L172.137 246.573Z" fill="#C44343"/>
<path d="M160.6 243.216C160.941 242.972 161.402 243.018 161.689 243.306L161.778 243.411L195.949 291.131L212.186 248.977C212.337 248.585 212.748 248.37 213.146 248.453L213.278 248.492C213.669 248.643 213.884 249.054 213.801 249.452L213.762 249.584L196.963 293.2C196.738 293.785 195.989 293.918 195.573 293.489L195.489 293.388L160.405 244.394C160.133 244.015 160.22 243.488 160.6 243.216Z" fill="#CCD7EE"/>
<path fill-rule="evenodd" clip-rule="evenodd" d="M206.443 296.977C209.953 303.619 207.832 311.63 201.706 314.867C195.577 318.107 187.767 315.348 184.255 308.705C180.747 302.063 182.866 294.052 188.992 290.815C195.12 287.575 202.933 290.334 206.443 296.977Z" fill="#CCD7EE"/>
<path fill-rule="evenodd" clip-rule="evenodd" d="M207.819 297.012C211.327 303.655 209.208 311.665 203.082 314.903C196.954 318.142 189.143 315.383 185.631 308.741C182.121 302.098 184.242 294.087 190.368 290.85C196.496 287.61 204.309 290.37 207.819 297.012Z" fill="#E4EBF7"/>
<path fill-rule="evenodd" clip-rule="evenodd" d="M205.333 298.018C208.059 303.176 206.412 309.394 201.656 311.909C196.9 314.424 190.832 312.282 188.108 307.123C185.382 301.967 187.028 295.747 191.786 293.232C196.544 290.719 202.61 292.861 205.333 298.018Z" fill="#FAAD14"/>
<path d="M130.9 258.437C131.263 258.465 131.534 258.781 131.506 259.144L131.345 261.384L131.225 263.204C131.146 264.451 131.067 265.763 130.992 267.122C130.819 270.275 130.681 273.373 130.592 276.321L130.551 277.782C130.398 283.9 130.482 288.804 130.858 292.03C131.236 295.273 133.076 300.649 136.023 307.539L136.311 308.211C136.935 309.654 137.598 311.145 138.296 312.676C139.948 316.297 141.719 319.976 143.49 323.519L144.384 325.296L145.849 328.149L145.904 328.293L156.71 370.76L156.727 370.988L154.987 388.358L156.972 388.537L158.456 388.659C160.246 388.801 162.237 388.941 164.415 389.075C188.433 390.543 215.35 390.183 242.021 386.735L243.513 386.537L243.495 385.188C243.432 382.362 243.211 376.836 242.87 369.342L242.56 362.676L241.879 348.78C241.872 348.647 241.906 348.514 241.976 348.4L242.443 347.623L242.911 346.819C243.155 346.395 243.413 345.939 243.682 345.453C244.966 343.14 246.25 340.636 247.447 338.033C249.075 334.495 250.414 331.054 251.361 327.82C252.233 324.848 252.751 322.123 252.87 319.704C253.175 313.487 252.606 308.641 251.052 303.649C250.233 301.018 249.136 298.301 247.525 294.832L246.847 293.395C246.045 291.727 244.543 288.661 243.31 286.154L241.346 282.165L241.28 281.869L241.402 271.077C241.406 270.713 241.704 270.422 242.067 270.426C242.39 270.43 242.656 270.665 242.709 270.973L242.718 271.092L242.597 281.726L247.641 292.013C247.915 292.578 248.146 293.057 248.313 293.41L248.387 293.567C250.204 297.428 251.414 300.384 252.309 303.258C253.91 308.401 254.497 313.401 254.185 319.769C254.06 322.302 253.523 325.125 252.625 328.191C251.657 331.492 250.296 334.991 248.643 338.583C247.604 340.842 246.501 343.026 245.389 345.078L244.833 346.092C244.56 346.584 244.299 347.046 244.052 347.476L243.37 348.64L243.202 348.916L243.449 353.83C243.592 356.741 243.736 359.701 243.874 362.613L244.555 377.777C244.766 382.957 244.863 386.235 244.818 387.148C244.802 387.465 244.563 387.725 244.249 387.768C216.813 391.481 189.047 391.9 164.335 390.389L162.507 390.272C160.726 390.155 159.085 390.033 157.593 389.91L155.23 389.703L154.198 389.602C153.878 389.568 153.636 389.31 153.611 389L153.612 388.882L155.405 370.973L144.648 328.692L144.031 327.5C143.512 326.491 142.935 325.352 142.313 324.107C140.535 320.551 138.758 316.859 137.099 313.222C136.572 312.068 136.066 310.936 135.581 309.83L135.103 308.733C131.938 301.403 129.961 295.699 129.55 292.183C129.165 288.879 129.08 283.925 129.235 277.749C129.308 274.842 129.432 271.769 129.594 268.626L129.678 267.05C129.753 265.687 129.832 264.37 129.912 263.12L130.193 259.042C130.221 258.68 130.538 258.409 130.9 258.437Z" fill="#C44343"/>
<path fill-rule="evenodd" clip-rule="evenodd" d="M246.351 398.217L242.996 386.729C242.996 386.729 200.141 389.85 159.862 389.836C157.913 394.532 157.53 403.435 157.53 403.435C160.769 400.494 201.832 406.53 246.351 398.217Z" fill="#4E5C93"/>
<path fill-rule="evenodd" clip-rule="evenodd" d="M380.096 451.657L259.7 417.422L248.046 398.772L157.952 402.303C157.952 402.303 100.07 509.778 168.584 533.301C222.992 548.279 238.104 549.815 238.104 549.815L259.495 579.243L356.748 532.421L427.804 487.712L380.096 451.657Z" fill="#4E5C93"/>
<path d="M201.101 405.888C201.427 405.68 201.848 405.741 202.102 406.014L202.189 406.127L216.394 428.315L318.027 492.185C318.125 492.247 318.208 492.328 318.27 492.425L318.325 492.525L336.488 532.387C336.668 532.782 336.493 533.25 336.098 533.43C335.742 533.592 335.328 533.467 335.117 533.152L335.055 533.04L316.989 493.395L215.406 429.555C215.341 429.514 215.282 429.464 215.231 429.406L215.162 429.313L200.863 406.976C200.628 406.61 200.735 406.123 201.101 405.888Z" fill="#253368"/>
<path d="M183.657 409.9C184.047 409.873 184.391 410.136 184.478 410.505L184.497 410.631L186.672 441.889L224.194 504.215L260.204 578.903C260.392 579.295 260.228 579.765 259.836 579.954C259.484 580.124 259.067 580.008 258.85 579.698L258.785 579.587L222.811 504.963L185.224 442.537C185.182 442.466 185.15 442.389 185.132 442.308L185.113 442.186L182.926 410.741C182.896 410.307 183.223 409.931 183.657 409.9Z" fill="#253368"/>
<path d="M168.028 411.866L168.155 411.881C168.539 411.957 168.803 412.299 168.791 412.678L168.776 412.806L160.302 455.995L198.417 536.053C198.586 536.407 198.468 536.823 198.156 537.039L198.045 537.103C197.692 537.271 197.276 537.153 197.06 536.841L196.995 536.73L158.77 456.439C158.715 456.325 158.69 456.199 158.694 456.074L158.708 455.949L167.231 412.502C167.306 412.118 167.649 411.854 168.028 411.866Z" fill="#253368"/>
<path d="M247.235 397.597C247.464 397.587 247.683 397.677 247.838 397.839L247.923 397.944L261.357 417.906L380.306 450.898L380.57 451.028L428.279 487.083C428.681 487.387 428.691 487.975 428.331 488.297L428.223 488.378L357.167 533.087C356.799 533.318 356.313 533.208 356.081 532.84C355.876 532.512 355.94 532.092 356.216 531.84L356.329 531.754L426.419 487.651L379.74 452.375L260.657 419.348C260.521 419.31 260.399 419.237 260.302 419.137L260.214 419.029L246.861 399.189L157.986 403.09C157.595 403.107 157.258 402.836 157.181 402.464L157.164 402.337C157.148 401.946 157.419 401.609 157.79 401.532L157.917 401.516L247.235 397.597Z" fill="#253368"/>
<path d="M201.516 434.63C201.845 434.427 202.265 434.497 202.514 434.775L202.599 434.889L220.031 463.302L258.518 498.441C258.804 498.702 258.853 499.124 258.655 499.441L258.569 499.554C258.308 499.839 257.886 499.889 257.569 499.69L257.456 499.604L218.889 464.392L218.749 464.223L201.257 435.713C201.029 435.342 201.145 434.857 201.516 434.63Z" fill="#253368"/>
<path d="M265.059 446.588C265.186 446.218 265.562 446.004 265.935 446.068L266.06 446.099L327.083 467.061L377.192 494.339C377.574 494.547 377.715 495.025 377.507 495.407C377.32 495.751 376.914 495.9 376.556 495.775L376.439 495.723L326.451 468.498L265.548 447.589C265.137 447.448 264.918 447 265.059 446.588Z" fill="#253368"/>
<path fill-rule="evenodd" clip-rule="evenodd" d="M345.478 258.417C351.364 261.522 354.001 268.261 351.468 273.712L304.815 376.626C299.968 386.129 286.168 394.498 274.754 386.191C264.217 380.629 259.888 368.317 265.171 358.942L329.745 261.671C332.964 256.823 339.785 255.413 345.478 258.417Z" fill="#FFC999"/>
<path fill-rule="evenodd" clip-rule="evenodd" d="M153.775 505.788C160.288 504.132 164.471 498.125 163.268 492.153L140.047 376.862C137.529 366.347 126.022 360.158 114.461 363.095C102.799 366.061 95.6397 377.152 98.6179 387.645L139.344 505.659C141.361 511.199 147.475 507.39 153.775 505.788Z" fill="#FFC999"/>
<path fill-rule="evenodd" clip-rule="evenodd" d="M113.531 396.859L115.851 397.327C127.287 399.637 138.432 392.237 140.74 380.796L161.595 277.497C163.903 266.059 156.504 254.914 145.065 252.604L142.747 252.134C131.311 249.826 120.166 257.226 117.858 268.665L97.0048 371.964C94.6931 383.405 102.094 394.549 113.531 396.859Z" fill="#FFC999"/>
<path fill-rule="evenodd" clip-rule="evenodd" d="M109.149 311.799L118.775 264.111C121.097 252.617 132.95 245.219 145.115 247.676C157.28 250.133 165.333 261.549 163.013 273.045L153.478 320.279L109.149 311.799Z" fill="#FF7A46"/>
<path d="M108.942 309.729L153.84 320.048C154.186 320.128 154.402 320.473 154.323 320.819C154.252 321.127 153.971 321.333 153.666 321.319L153.551 321.303L108.653 310.984C108.307 310.904 108.09 310.559 108.17 310.212C108.241 309.904 108.522 309.699 108.826 309.713L108.942 309.729Z" fill="#C44343"/>
<path fill-rule="evenodd" clip-rule="evenodd" d="M194.751 533.596C198.544 532.149 191.814 515.39 189.717 511.961C186.924 507.384 161.194 493.159 161.194 493.159L156.674 472.942L132.975 482.604C132.975 482.604 136.62 504.906 143.298 516.403C148.282 524.981 156.759 523.145 168.812 534.505C174.392 539.762 181.375 545.326 184.219 541.13C184.779 540.302 190.581 541.824 189.835 536.697C189.835 536.697 191.808 538.235 193.666 536.68C195.279 535.328 194.751 533.596 194.751 533.596Z" fill="#FFC999"/>
<path d="M163.698 521.339C163.89 520.931 164.376 520.757 164.784 520.949L165.247 521.178L165.415 521.265C165.905 521.52 166.451 521.82 167.037 522.163C168.713 523.142 170.388 524.273 171.956 525.543C173.377 526.695 174.641 527.909 175.706 529.182L185.03 540.329C185.319 540.675 185.273 541.19 184.928 541.48C184.582 541.769 184.067 541.723 183.777 541.377L174.454 530.23C173.461 529.044 172.272 527.902 170.927 526.812C169.43 525.598 167.822 524.513 166.213 523.573C165.791 523.326 165.392 523.103 165.022 522.905L164.253 522.506C164.183 522.472 164.128 522.445 164.088 522.426C163.68 522.234 163.505 521.747 163.698 521.339Z" fill="#DD936F"/>
<path d="M170.077 513.987C170.355 513.631 170.868 513.569 171.223 513.847L171.761 514.28L172.429 514.835C172.663 515.032 172.907 515.24 173.16 515.459C174.606 516.712 176.052 518.06 177.404 519.456C178.95 521.052 180.274 522.61 181.31 524.098L182.126 525.262C182.411 525.664 182.708 526.08 183.016 526.509L183.987 527.852C184.767 528.925 185.581 530.031 186.409 531.144L188.781 534.307L189.934 535.825C190.209 536.183 190.141 536.696 189.783 536.97C189.425 537.244 188.912 537.176 188.638 536.818L187.132 534.833L186.771 534.355C185.652 532.867 184.532 531.363 183.46 529.9L182.164 528.119L181.233 526.823C180.784 526.194 180.362 525.596 179.969 525.031C178.99 523.624 177.721 522.13 176.231 520.592C174.915 519.234 173.503 517.917 172.091 516.694L171.378 516.085L170.365 515.251C170.303 515.201 170.253 515.161 170.217 515.133C169.862 514.855 169.799 514.342 170.077 513.987Z" fill="#DD936F"/>
<path d="M175.774 508.939C176.027 508.566 176.534 508.468 176.908 508.721L177.445 509.1C177.864 509.404 178.33 509.754 178.831 510.148C180.264 511.271 181.696 512.517 183.036 513.853C185.632 516.443 187.564 519.054 188.556 521.617C189.039 522.862 189.574 524.084 190.154 525.279C191.084 527.196 192.081 528.95 193.076 530.502C193.424 531.044 193.746 531.521 194.035 531.93L194.388 532.416C194.662 532.774 194.593 533.286 194.235 533.56C193.877 533.834 193.365 533.766 193.091 533.408L192.805 533.018L192.701 532.872C192.399 532.445 192.063 531.947 191.702 531.384C190.673 529.78 189.644 527.97 188.685 525.992C188.086 524.758 187.533 523.495 187.034 522.207C186.138 519.893 184.331 517.452 181.883 515.009C180.593 513.723 179.208 512.519 177.824 511.433L177.125 510.895C177.013 510.811 176.904 510.729 176.798 510.651L176.054 510.115C176.03 510.099 176.009 510.085 175.992 510.073C175.618 509.82 175.521 509.312 175.774 508.939Z" fill="#DD936F"/>
<path fill-rule="evenodd" clip-rule="evenodd" d="M327.345 260.839L333.633 227.279C333.633 227.279 351.063 188.637 358.836 190.169C366.148 192.574 351.282 204.576 349.124 215.23C355.759 214.116 353.673 224.344 353.673 224.344C353.673 224.344 358.973 223.642 358.317 231.877C363.532 234.329 360.461 244 360.461 244C360.461 244 357.756 262.889 348.325 280.266C348.325 280.266 328.728 289.813 327.345 260.839Z" fill="#FFC999"/>
<path fill-rule="evenodd" clip-rule="evenodd" d="M326.549 258.131C326.549 258.131 326.977 242.461 327.65 234.434C328.32 226.407 323.631 212.476 329.744 215.703C333.852 217.872 333.991 226.413 334.446 232.679C334.906 238.94 346.413 252.794 339.869 263.769C335.448 271.184 327.519 272.861 326.549 258.131Z" fill="#FFC999"/>
<path d="M348.482 214.726C348.76 214.372 349.274 214.31 349.628 214.588C349.983 214.866 350.045 215.38 349.767 215.735L349.454 216.144L348.839 216.976C348.766 217.076 348.691 217.18 348.615 217.286C347.747 218.497 346.878 219.793 346.069 221.117C345.27 222.423 344.573 223.687 344.005 224.881C341.896 229.32 341.865 232.056 344.198 232.778C344.629 232.911 344.87 233.369 344.737 233.799C344.603 234.23 344.146 234.471 343.715 234.338C339.999 233.188 340.042 229.417 342.53 224.18C343.124 222.93 343.849 221.616 344.676 220.265C345.508 218.904 346.398 217.576 347.288 216.334L347.739 215.714L348.439 214.782C348.455 214.761 348.47 214.742 348.482 214.726Z" fill="#DD936F"/>
<path d="M353.667 224.147C353.975 224.477 353.956 224.994 353.626 225.301L353.281 225.63L352.841 226.062C352.686 226.215 352.525 226.378 352.357 226.548C351.4 227.522 350.443 228.563 349.552 229.626C348.68 230.666 347.918 231.672 347.298 232.62C345.321 235.646 345.062 237.568 346.607 238.325C346.935 238.485 347.271 238.562 347.624 238.564C348.879 238.57 350.364 237.616 351.876 235.992C352.429 235.4 352.944 234.762 353.406 234.123L353.758 233.623C353.854 233.481 353.928 233.368 353.978 233.287C354.216 232.904 354.719 232.786 355.102 233.024C355.485 233.262 355.603 233.765 355.365 234.149L355.214 234.384C355.092 234.568 354.929 234.805 354.728 235.082C354.229 235.771 353.673 236.46 353.071 237.106C351.275 239.034 349.451 240.206 347.617 240.197C347.02 240.194 346.44 240.061 345.889 239.792C343.085 238.418 343.482 235.475 345.931 231.727C346.59 230.719 347.39 229.663 348.301 228.576C349.222 227.477 350.207 226.406 351.193 225.403L351.924 224.672L352.514 224.105C352.844 223.798 353.36 223.817 353.667 224.147Z" fill="#DD936F"/>
<path d="M356.389 231.846C356.826 231.734 357.271 231.998 357.383 232.434C357.495 232.871 357.232 233.316 356.795 233.428C355.743 233.698 354.471 234.793 353.019 236.874C349.971 241.243 349.509 243.906 350.578 244.401C351.688 244.916 354.084 243.534 355.474 241.076C355.973 240.193 357.315 240.832 356.945 241.776C354.985 246.772 352.422 250.015 348.808 252.739C348.32 253.106 347.818 253.463 347.247 253.85L344.889 255.402C340.111 258.548 338.313 260.955 337.731 266.588C337.684 267.037 337.283 267.363 336.835 267.316C336.386 267.27 336.06 266.869 336.107 266.42C336.729 260.395 338.73 257.58 343.591 254.304L345.9 252.787L346.729 252.226C347.119 251.955 347.477 251.697 347.825 251.435C349.938 249.842 351.658 248.072 353.101 245.82L353.287 245.519L353.131 245.601C352.058 246.13 350.982 246.29 350.093 245.966L349.891 245.883C347.472 244.762 348.117 241.046 351.68 235.939C353.335 233.568 354.888 232.232 356.389 231.846Z" fill="#DD936F"/>
<path d="M333.731 224.043C334.13 223.971 334.514 224.203 334.645 224.574L334.679 224.702L336.766 236.327L336.881 236.488C337.061 236.743 337.26 237.037 337.474 237.367C338.084 238.308 338.693 239.355 339.261 240.484C340.898 243.732 341.884 246.992 341.885 250.074C341.885 251.815 341.565 253.45 340.888 254.952C340.703 255.363 340.22 255.546 339.808 255.361C339.397 255.176 339.214 254.692 339.399 254.281C339.977 253 340.252 251.593 340.252 250.074C340.251 247.288 339.335 244.259 337.803 241.219C337.371 240.361 336.913 239.551 336.451 238.804L336.104 238.255C335.758 237.722 335.492 237.345 335.345 237.15C335.293 237.082 335.253 237.006 335.225 236.926L335.193 236.802L333.071 224.991C332.992 224.547 333.287 224.123 333.731 224.043Z" fill="#DD936F"/>
<path d="M242.967 385.941C243.402 385.925 243.767 386.264 243.784 386.698C243.798 387.09 243.525 387.425 243.153 387.5L243.026 387.515L159.892 390.622C159.457 390.638 159.092 390.299 159.075 389.864C159.061 389.473 159.334 389.138 159.706 389.063L159.833 389.048L242.967 385.941Z" fill="#253368"/>
</g>
<path fill-rule="evenodd" clip-rule="evenodd" d="M416.442 273.341C383.608 257.808 364.039 298.546 380.552 321.229C400.703 348.909 411.026 380.758 416.774 390.354C421.623 398.449 434.906 418.184 450.901 409.088C465.622 400.716 457.599 367.861 457.599 367.861C457.599 367.861 456.949 292.504 416.442 273.341Z" fill="#5B8C00"/>
<path fill-rule="evenodd" clip-rule="evenodd" d="M515.203 402.762C526.366 387.699 530.441 366.084 517.982 360.54C506.036 355.226 486.249 368.311 477.083 393.494C467.918 418.676 462.63 436.782 471.596 439.93C486.305 445.095 500.459 422.656 515.203 402.762Z" fill="#5B8C00"/>
<path fill-rule="evenodd" clip-rule="evenodd" d="M397.85 403.906C410.475 418.704 428.694 448.472 440.108 438.046C447.026 431.728 437.778 401.805 412.464 385.524C390.931 371.676 385.224 389.107 397.85 403.906Z" fill="#7CB305"/>
<path fill-rule="evenodd" clip-rule="evenodd" d="M518.664 301.214C513.863 297.984 507.823 297.246 502.312 299.011C494.62 301.475 482.949 308.811 471.397 329.868C456.315 357.361 448.464 387.5 450.016 406.591C451.031 419.076 466.409 424.459 475.013 415.356C478.964 411.175 483.144 404.73 487.235 394.953C503.696 355.61 519.086 330.955 520.921 328.48C525.818 321.874 529.32 308.385 518.664 301.214Z" fill="#7CB305"/>
<path fill-rule="evenodd" clip-rule="evenodd" d="M507.624 316.907C507.461 318.85 508.903 320.556 510.845 320.719C512.788 320.882 514.494 319.44 514.657 317.497C514.82 315.555 513.377 313.848 511.435 313.685C509.493 313.522 507.787 314.965 507.624 316.907Z" fill="white"/>
<path fill-rule="evenodd" clip-rule="evenodd" d="M477.648 331.977C477.485 333.919 478.928 335.626 480.87 335.789C482.812 335.952 484.519 334.51 484.682 332.567C484.845 330.625 483.402 328.918 481.46 328.755C479.518 328.592 477.811 330.035 477.648 331.977Z" fill="white"/>
<path fill-rule="evenodd" clip-rule="evenodd" d="M482.672 372.101C482.486 374.326 484.137 376.281 486.362 376.467C488.586 376.654 490.54 375.002 490.727 372.777C490.913 370.553 489.262 368.598 487.037 368.411C484.813 368.225 482.859 369.877 482.672 372.101Z" fill="white"/>
<path fill-rule="evenodd" clip-rule="evenodd" d="M390.603 312.137C390.603 315.294 393.162 317.854 396.318 317.854C399.475 317.854 402.034 315.294 402.034 312.137C402.034 308.98 399.475 306.421 396.318 306.421C393.162 306.421 390.603 308.98 390.603 312.137Z" fill="white"/>
<path fill-rule="evenodd" clip-rule="evenodd" d="M436.614 329.593C436.614 332.75 439.173 335.31 442.329 335.31C445.486 335.31 448.045 332.75 448.045 329.593C448.045 326.436 445.486 323.877 442.329 323.877C439.173 323.877 436.614 326.436 436.614 329.593Z" fill="white"/>
<path fill-rule="evenodd" clip-rule="evenodd" d="M421.712 368.397C421.712 369.716 422.782 370.786 424.101 370.786C425.42 370.786 426.49 369.716 426.49 368.397C426.49 367.077 425.42 366.007 424.101 366.007C422.782 366.007 421.712 367.077 421.712 368.397Z" fill="white"/>
<path fill-rule="evenodd" clip-rule="evenodd" d="M404.502 398.953C404.502 400.903 406.082 402.483 408.031 402.483C409.98 402.483 411.56 400.903 411.56 398.953C411.56 397.004 409.98 395.424 408.031 395.424C406.082 395.424 404.502 397.004 404.502 398.953Z" fill="white"/>
<path d="M486.931 406.782C486.602 406.468 486.081 406.481 485.767 406.81L485.617 406.972L485.503 407.098C485.295 407.33 485.055 407.606 484.786 407.927C484.021 408.84 483.171 409.93 482.256 411.196C479.65 414.806 477.046 419.113 474.617 424.109C467.686 438.368 463.529 455.305 463.529 474.857C463.529 475.311 463.897 475.68 464.351 475.68C464.806 475.68 465.174 475.311 465.174 474.857C465.174 455.563 469.271 438.871 476.097 424.829C478.483 419.92 481.038 415.695 483.591 412.16C484.429 410.999 485.21 409.993 485.916 409.143L486.047 408.985C486.248 408.746 486.43 408.534 486.593 408.349L486.799 408.118C486.876 408.034 486.929 407.976 486.958 407.946C487.272 407.617 487.259 407.096 486.931 406.782Z" fill="#253368"/>
<path d="M424.761 412.543C424.489 412.179 423.973 412.104 423.609 412.376C423.245 412.648 423.17 413.163 423.442 413.528C426.439 417.542 429.205 421.859 431.749 426.435C437.126 436.108 441.283 446.479 444.368 456.851C445.448 460.481 446.317 463.851 446.993 466.873L447.13 467.493C447.292 468.232 447.431 468.906 447.55 469.511L447.626 469.906L447.763 470.653C447.838 471.101 448.263 471.403 448.711 471.328C449.159 471.252 449.461 470.828 449.386 470.38L449.339 470.115C449.3 469.901 449.253 469.649 449.197 469.36L449.061 468.675C448.929 468.022 448.775 467.3 448.599 466.514L448.45 465.853C447.789 462.967 446.959 459.787 445.946 456.381C442.828 445.902 438.627 435.422 433.187 425.635C430.609 420.997 427.803 416.619 424.761 412.543Z" fill="#253368"/>
<path d="M410.381 309.858C410.066 310.16 410.043 310.653 410.32 310.982L410.356 311.022C410.372 311.039 410.407 311.076 410.46 311.133L410.662 311.354L410.779 311.484C411.134 311.879 411.545 312.355 412.01 312.911C413.343 314.505 414.829 316.424 416.432 318.667C421.018 325.089 425.606 332.823 429.891 341.877C437.025 356.953 442.581 374.147 445.948 393.477C450.037 416.948 450.714 442.589 447.367 470.418C447.313 470.869 447.634 471.279 448.086 471.333C448.537 471.388 448.947 471.066 449.001 470.615C452.367 442.626 451.686 416.824 447.569 393.194C444.176 373.716 438.574 356.38 431.379 341.173C427.051 332.028 422.412 324.21 417.771 317.711L417.411 317.21C415.98 315.228 414.642 313.504 413.425 312.037L413.273 311.855C412.836 311.332 412.442 310.876 412.098 310.489L412.005 310.385C411.897 310.265 411.8 310.159 411.716 310.067L411.544 309.883C411.23 309.555 410.709 309.544 410.381 309.858Z" fill="#253368"/>
<path d="M481.609 358.666C481.221 358.43 480.715 358.554 480.479 358.943L480.396 359.082C480.331 359.193 480.253 359.326 480.165 359.48L480.036 359.706C479.815 360.094 479.567 360.54 479.294 361.043L479.067 361.462C478.23 363.02 477.313 364.823 476.334 366.866L476.2 367.146C473.006 373.84 469.813 381.667 466.834 390.561C458.492 415.466 453.417 443.733 453.228 474.852C453.225 475.306 453.591 475.677 454.045 475.68C454.5 475.683 454.871 475.316 454.873 474.862C455.062 443.925 460.106 415.83 468.394 391.084C471.298 382.416 474.404 374.772 477.513 368.218L477.685 367.855C478.748 365.628 479.737 363.685 480.629 362.034L480.898 361.54C481.155 361.069 481.387 360.656 481.591 360.301L481.688 360.133L481.887 359.796C482.122 359.407 481.998 358.901 481.609 358.666Z" fill="#253368"/>
<path fill-rule="evenodd" clip-rule="evenodd" d="M418.276 515.682H489.407C493.252 515.682 496.398 512.535 496.398 508.69V456.788C496.398 452.942 493.252 449.796 489.407 449.796H418.276C414.432 449.796 411.285 452.942 411.285 456.788V508.69C411.285 512.535 414.432 515.682 418.276 515.682Z" fill="#253368"/>
<g clip-path="url(#clip1_98_2264)">
<path d="M472.477 237.504L495.929 215.572L502.661 229.293C506.952 238.306 506.29 247.169 501.168 254.604C499.242 257.208 497.336 258.894 495.394 260.266C497.482 259.202 501.312 257.641 504.334 258.604C508.717 260.005 510.983 262.083 515.411 266.813L522.284 275.542C522.284 275.542 499.302 284.957 498.895 284.479C495.047 285.374 489.953 286.194 485.416 285.421C482.007 284.842 478.907 283.36 476.883 280.333C470.047 279.92 468.56 277.528 472.423 273.155C472.79 272.744 473.192 272.335 473.628 271.934C472.572 270.746 471.327 269.326 469.888 267.678C466.296 262.899 464.546 257.031 465.033 251.373C465.441 246.616 467.4 242.329 470.557 239.17C471.156 238.572 471.796 238.016 472.477 237.504Z" fill="url(#paint3_linear_98_2264)"/>
<path d="M481.176 269.282C490.858 263.865 494.724 265.443 498.771 267.855C502.818 270.263 509.713 279.587 511.525 282.577C511.525 282.577 499.317 289.949 486.817 292.217C478.373 292.706 477.46 290.051 471.734 283.942C466.554 277.895 463.112 273.292 461.411 270.138C464.111 274.219 470.7 273.932 481.176 269.282Z" fill="url(#paint4_linear_98_2264)"/>
<path d="M490.187 235.482C496.854 246.178 496.626 253.852 490.153 261.886C489.047 264.308 475.456 276.549 477.864 289.359C477.225 289.625 472.331 284.166 463.179 272.989C459.191 266.594 456.396 262.687 456.281 256.764C456.164 250.839 460.507 243.007 463.658 238.687L478.498 219.488L490.187 235.482Z" fill="url(#paint5_linear_98_2264)"/>
<path d="M481.783 268.959C482.591 268.499 483.263 268.183 483.468 268.079C484.568 267.529 485.723 267.043 486.237 266.873C479.404 276.661 476.502 284.362 477.533 289.978C476.996 289.786 474.189 286.611 472.778 285.116C466.947 278.425 463.166 273.387 461.365 270.046C464.488 273.78 470.635 274.23 481.783 268.959Z" fill="#FFB511"/>
</g>
<defs>
<linearGradient id="paint0_linear_98_2264" x1="40.8547" y1="469.399" x2="110.581" y2="460.665" gradientUnits="userSpaceOnUse">
<stop stop-color="#FFBA00"/>
<stop offset="1" stop-color="#FA5800"/>
</linearGradient>
<linearGradient id="paint1_linear_98_2264" x1="137.41" y1="454.812" x2="89.9022" y2="515.804" gradientUnits="userSpaceOnUse">
<stop stop-color="#FFF75D"/>
<stop offset="1" stop-color="#F89800"/>
</linearGradient>
<linearGradient id="paint2_linear_98_2264" x1="55.0495" y1="395.683" x2="136.33" y2="465.719" gradientUnits="userSpaceOnUse">
<stop stop-color="#FFF75D"/>
<stop offset="1" stop-color="#F89600"/>
</linearGradient>
<linearGradient id="paint3_linear_98_2264" x1="514.046" y1="244.693" x2="482.245" y2="269.409" gradientUnits="userSpaceOnUse">
<stop stop-color="#FFBA00"/>
<stop offset="1" stop-color="#FA5800"/>
</linearGradient>
<linearGradient id="paint4_linear_98_2264" x1="469.005" y1="277.918" x2="512.971" y2="283.385" gradientUnits="userSpaceOnUse">
<stop stop-color="#FFF75D"/>
<stop offset="1" stop-color="#F89800"/>
</linearGradient>
<linearGradient id="paint5_linear_98_2264" x1="478.424" y1="220.573" x2="473.871" y2="281.901" gradientUnits="userSpaceOnUse">
<stop stop-color="#FFF75D"/>
<stop offset="1" stop-color="#F89600"/>
</linearGradient>
<clipPath id="clip0_98_2264">
<rect width="590.094" height="486.504" fill="white" transform="translate(0 55.4628)"/>
</clipPath>
<clipPath id="clip1_98_2264">
<rect width="91.5523" height="91.5523" fill="white" transform="matrix(-0.707047 0.707167 0.707047 0.707167 490.877 192.311)"/>
</clipPath>
</defs>
</svg>
